<?xml version="1.0" encoding="UTF-8"?>
<svg xmlns="http://www.w3.org/2000/svg" version="1.1" width="208px" height="50px"
    style="shape-rendering:geometricPrecision; text-rendering:geometricPrecision; image-rendering:optimizeQuality; fill-rule:evenodd; clip-rule:evenodd"
    xmlns:xlink="http://www.w3.org/1999/xlink">
    <g>
        <path style="opacity:1" fill="#070707"
            d="M 11.5,-0.5 C 26.1667,-0.5 40.8333,-0.5 55.5,-0.5C 56.1667,2.16667 56.8333,2.16667 57.5,-0.5C 62.8333,-0.5 68.1667,-0.5 73.5,-0.5C 73.1758,3.55461 73.5091,7.55461 74.5,11.5C 78.5792,7.75951 82.2459,3.75951 85.5,-0.5C 89.5,-0.5 93.5,-0.5 97.5,-0.5C 99.1401,2.78022 100.807,6.11355 102.5,9.5C 103.487,6.23171 103.82,2.89838 103.5,-0.5C 133.5,-0.5 163.5,-0.5 193.5,-0.5C 196.863,2.51501 200.863,4.51501 205.5,5.5C 206.062,15.6299 205.395,25.6299 203.5,35.5C 204.385,37.9773 205.718,39.9773 207.5,41.5C 207.5,44.1667 207.5,46.8333 207.5,49.5C 201.5,49.5 195.5,49.5 189.5,49.5C 188.411,45.3136 186.744,41.3136 184.5,37.5C 183.52,40.0865 183.187,42.7531 183.5,45.5C 152.833,45.5 122.167,45.5 91.5,45.5C 90.4106,41.3136 88.7439,37.3136 86.5,33.5C 83.917,36.9974 81.5836,40.6641 79.5,44.5C 70.1904,45.4983 60.8571,45.8316 51.5,45.5C 51.5,44.1667 51.5,42.8333 51.5,41.5C 48.9876,41.4228 46.9876,42.4228 45.5,44.5C 40.8804,45.4933 36.2137,45.8266 31.5,45.5C 31.5,41.5 31.5,37.5 31.5,33.5C 28.1667,33.5 24.8333,33.5 21.5,33.5C 21.7141,38.3063 19.7141,41.973 15.5,44.5C 10.2079,45.4948 4.8746,45.8282 -0.5,45.5C -0.5,32.1667 -0.5,18.8333 -0.5,5.5C 4.13706,4.51501 8.13706,2.51501 11.5,-0.5 Z" />
    </g>
    <g>
        <path style="opacity:1" fill="#6e6e6e"
            d="M 33.5,9.5 C 32.8333,9.5 32.1667,9.5 31.5,9.5C 22.8333,9.5 14.1667,9.5 5.5,9.5C 7.70046,7.38307 10.3671,5.7164 13.5,4.5C 21.5,3.16667 29.5,3.16667 37.5,4.5C 35.7389,5.9166 34.4056,7.58327 33.5,9.5 Z" />
    </g>
    <g>
        <path style="opacity:1" fill="#707070"
            d="M 49.5,3.5 C 48.1667,6.16667 46.1667,8.16667 43.5,9.5C 41.5,9.5 39.5,9.5 37.5,9.5C 39.8748,4.54916 43.8748,2.54916 49.5,3.5 Z" />
    </g>
    <g>
        <path style="opacity:1" fill="#343534"
            d="M 49.5,3.5 C 50.7943,5.04775 51.4609,7.04775 51.5,9.5C 51.1667,11.5 50.8333,13.5 50.5,15.5C 48.41,17.2469 46.7433,19.2469 45.5,21.5C 43.5772,17.9707 42.9106,13.9707 43.5,9.5C 46.1667,8.16667 48.1667,6.16667 49.5,3.5 Z" />
    </g>
    <g>
        <path style="opacity:1" fill="#707070"
            d="M 69.5,5.5 C 67.5,6.83333 65.5,8.16667 63.5,9.5C 61.5,9.5 59.5,9.5 57.5,9.5C 58.9989,6.00768 61.6656,4.00768 65.5,3.5C 67.3328,3.58544 68.6661,4.2521 69.5,5.5 Z" />
    </g>
    <g>
        <path style="opacity:1" fill="#7a7a7a"
            d="M 93.5,3.5 C 91.299,5.70972 89.9657,8.37639 89.5,11.5C 87.7179,10.2804 85.7179,9.61377 83.5,9.5C 85.3012,5.0458 88.6345,3.0458 93.5,3.5 Z" />
    </g>
    <g>
        <path style="opacity:1" fill="#343534"
            d="M 93.5,3.5 C 95.951,6.37396 97.951,9.70729 99.5,13.5C 97.2395,15.7447 95.9062,18.4114 95.5,21.5C 93.0263,18.5702 91.0263,15.2368 89.5,11.5C 89.9657,8.37639 91.299,5.70972 93.5,3.5 Z" />
    </g>
    <g>
        <path style="opacity:1" fill="#6e6e6e"
            d="M 133.5,9.5 C 124.833,9.5 116.167,9.5 107.5,9.5C 107.5,7.5 107.5,5.5 107.5,3.5C 115.528,3.16897 123.528,3.5023 131.5,4.5C 133.005,5.84152 133.672,7.50819 133.5,9.5 Z" />
    </g>
    <g>
        <path style="opacity:1" fill="#6f6f6f"
            d="M 165.5,9.5 C 156.833,9.5 148.167,9.5 139.5,9.5C 138.594,7.58327 137.261,5.9166 135.5,4.5C 144.167,3.16667 152.833,3.16667 161.5,4.5C 163.261,5.9166 164.594,7.58327 165.5,9.5 Z" />
    </g>
    <g>
        <path style="opacity:1" fill="#6e6e6e"
            d="M 199.5,9.5 C 190.167,9.5 180.833,9.5 171.5,9.5C 170.594,7.58327 169.261,5.9166 167.5,4.5C 175.5,3.16667 183.5,3.16667 191.5,4.5C 194.633,5.7164 197.3,7.38307 199.5,9.5 Z" />
    </g>
    <g>
        <path style="opacity:1" fill="#343534"
            d="M 69.5,5.5 C 69.831,13.5277 69.4977,21.5277 68.5,29.5C 67.0834,31.2611 65.4167,32.5944 63.5,33.5C 63.5,25.5 63.5,17.5 63.5,9.5C 65.5,8.16667 67.5,6.83333 69.5,5.5 Z" />
    </g>
    <g>
        <path style="opacity:1" fill="#fdfdfd"
            d="M 5.5,9.5 C 14.1667,9.5 22.8333,9.5 31.5,9.5C 31.5,15.5 31.5,21.5 31.5,27.5C 27.2853,29.4364 22.6186,30.1031 17.5,29.5C 16.8333,26.8333 16.1667,24.1667 15.5,21.5C 18.1667,21.5 20.8333,21.5 23.5,21.5C 23.5,20.1667 23.5,18.8333 23.5,17.5C 19.0293,16.9106 15.0293,17.5772 11.5,19.5C 11.5,26.8333 11.5,34.1667 11.5,41.5C 8.83333,41.5 6.16667,41.5 3.5,41.5C 2.85718,30.4476 3.52385,19.7809 5.5,9.5 Z" />
    </g>
    <g>
        <path style="opacity:1" fill="#343534"
            d="M 31.5,9.5 C 32.1667,9.5 32.8333,9.5 33.5,9.5C 34.12,15.9262 33.4533,21.9262 31.5,27.5C 31.5,21.5 31.5,15.5 31.5,9.5 Z" />
    </g>
    <g>
        <path style="opacity:1" fill="#fefffe"
            d="M 37.5,9.5 C 39.5,9.5 41.5,9.5 43.5,9.5C 42.9106,13.9707 43.5772,17.9707 45.5,21.5C 48.8333,21.5 52.1667,21.5 55.5,21.5C 54.9106,17.0293 55.5772,13.0293 57.5,9.5C 59.5,9.5 61.5,9.5 63.5,9.5C 63.5,17.5 63.5,25.5 63.5,33.5C 63.5,36.1667 63.5,38.8333 63.5,41.5C 60.8333,41.5 58.1667,41.5 55.5,41.5C 55.5,37.5 55.5,33.5 55.5,29.5C 51.0293,28.9106 47.0293,29.5772 43.5,31.5C 43.5,34.1667 43.5,36.8333 43.5,39.5C 41.3647,41.369 38.6981,42.0356 35.5,41.5C 34.8572,30.4476 35.5238,19.7809 37.5,9.5 Z" />
    </g>
    <g>
        <path style="opacity:1" fill="#eeeeee"
            d="M 83.5,9.5 C 85.7179,9.61377 87.7179,10.2804 89.5,11.5C 91.0263,15.2368 93.0263,18.5702 95.5,21.5C 98.1667,28.1667 100.833,34.8333 103.5,41.5C 100.167,41.5 96.8333,41.5 93.5,41.5C 91.5,36.1667 89.5,30.8333 87.5,25.5C 86.1667,25.5 84.8333,25.5 83.5,25.5C 81.5,30.8333 79.5,36.1667 77.5,41.5C 74.1667,41.5 70.8333,41.5 67.5,41.5C 71.8177,30.1979 77.151,19.5312 83.5,9.5 Z" />
    </g>
    <g>
        <path style="opacity:1" fill="#fafafa"
            d="M 107.5,9.5 C 116.167,9.5 124.833,9.5 133.5,9.5C 135.369,11.6353 136.036,14.3019 135.5,17.5C 130.786,17.1734 126.12,17.5067 121.5,18.5C 125.833,22.8333 130.167,27.1667 134.5,31.5C 135.487,34.7683 135.82,38.1016 135.5,41.5C 126.167,41.5 116.833,41.5 107.5,41.5C 107.5,38.8333 107.5,36.1667 107.5,33.5C 110.833,33.5 114.167,33.5 117.5,33.5C 119.604,33.7989 121.604,33.4656 123.5,32.5C 118.5,27.5 113.5,22.5 108.5,17.5C 107.52,14.9135 107.187,12.2469 107.5,9.5 Z" />
    </g>
    <g>
        <path style="opacity:1" fill="#fefffe"
            d="M 139.5,9.5 C 148.167,9.5 156.833,9.5 165.5,9.5C 167.369,11.6353 168.036,14.3019 167.5,17.5C 160.416,16.8745 153.75,17.5411 147.5,19.5C 153.074,21.4533 159.074,22.12 165.5,21.5C 167.369,23.6353 168.036,26.3019 167.5,29.5C 160.416,28.8745 153.75,29.5411 147.5,31.5C 153.074,33.4533 159.074,34.12 165.5,33.5C 167.369,35.6353 168.036,38.3019 167.5,41.5C 158.167,41.5 148.833,41.5 139.5,41.5C 139.5,30.8333 139.5,20.1667 139.5,9.5 Z" />
    </g>
    <g>
        <path style="opacity:1" fill="#f9f9f9"
            d="M 171.5,9.5 C 180.833,9.5 190.167,9.5 199.5,9.5C 201.459,15.7496 202.126,22.4163 201.5,29.5C 199.5,29.5 197.5,29.5 195.5,29.5C 197.5,34.8333 199.5,40.1667 201.5,45.5C 198.833,45.5 196.167,45.5 193.5,45.5C 190.167,37.5 186.833,29.5 183.5,21.5C 186.833,21.5 190.167,21.5 193.5,21.5C 193.5,20.1667 193.5,18.8333 193.5,17.5C 188.381,16.8969 183.715,17.5636 179.5,19.5C 179.5,26.8333 179.5,34.1667 179.5,41.5C 176.833,41.5 174.167,41.5 171.5,41.5C 171.5,30.8333 171.5,20.1667 171.5,9.5 Z" />
    </g>
    <g>
        <path style="opacity:1" fill="#2f2f2f"
            d="M 183.5,21.5 C 182.167,20.8333 180.833,20.1667 179.5,19.5C 183.715,17.5636 188.381,16.8969 193.5,17.5C 193.5,18.8333 193.5,20.1667 193.5,21.5C 190.167,21.5 186.833,21.5 183.5,21.5 Z" />
    </g>
    <g>
        <path style="opacity:1" fill="#343534"
            d="M 11.5,19.5 C 12.993,24.7788 14.993,30.1121 17.5,35.5C 16.1236,38.2099 14.1236,40.2099 11.5,41.5C 11.5,34.1667 11.5,26.8333 11.5,19.5 Z" />
    </g>
    <g>
        <path style="opacity:1" fill="#343534"
            d="M 147.5,19.5 C 153.926,18.88 159.926,19.5467 165.5,21.5C 159.074,22.12 153.074,21.4533 147.5,19.5 Z" />
    </g>
    <g>
        <path style="opacity:1" fill="#343534"
            d="M 117.5,33.5 C 114.167,33.5 110.833,33.5 107.5,33.5C 107.5,31.5 107.5,29.5 107.5,27.5C 112.366,27.0458 115.699,29.0458 117.5,33.5 Z" />
    </g>
    <g>
        <path style="opacity:1" fill="#343534"
            d="M 43.5,31.5 C 46.0124,31.4228 48.0124,32.4228 49.5,34.5C 47.7531,36.59 45.7531,38.2567 43.5,39.5C 43.5,36.8333 43.5,34.1667 43.5,31.5 Z" />
    </g>
    <g>
        <path style="opacity:1" fill="#343534"
            d="M 147.5,31.5 C 153.926,30.88 159.926,31.5467 165.5,33.5C 159.074,34.12 153.074,33.4533 147.5,31.5 Z" />
    </g>
</svg>